<?xml version="1.0" encoding="UTF-8"?>
<!-- Created with Inkscape (http://www.inkscape.org/) -->
<svg width="1536" height="384" version="1.1" viewBox="0 0 406 102" xml:space="preserve" xmlns="http://www.w3.org/2000/svg"><g transform="translate(0 -17.3)"><g id="text" transform="translate(.586 2.87)" stroke-width="0" style="paint-order:stroke fill markers" aria-label="boomapi"><path d="m48.5 82.2 0.434-0.248q1.24-0.651 1.92-1.49 0.806-1.12 0.682-2.26-0.372-2.67-3.72-4.15-1.3-0.589-2.98-0.899-1.27-0.279-2.73-0.465 0.093 9.52 0.093 9.52 0 0.031 0.062 0.062 0.062 0.031 0.186 0.062 0.124 0.031 0.31 0.062 0.217 0.031 0.496 0.093 0.279 0.031 0.62 0.062 0.186 0 0.589 0.062 0.403 0.031 0.62 0.062 0.372 0.031 0.713 0.031 1.46 0.031 2.7-0.496zm-6.48-30.1 0.093 9.12q2.7 0.031 4.62-1.27 1.77-1.27 1.98-3.04 0.217-1.83-1.33-3.16-1.83-1.52-5.36-1.64zm18.4 11.2q8.15 3.32 9.02 11.6 0.899 7.97-3.97 12.8-4.5 4.59-12.2 4.87-3.5 0.155-8.12-0.093l-4.06-0.217-4.06-0.248-0.031-0.031-12.3-0.651 0.093-50.9 16.9 0.403q5.92 0.31 10.9 1.3 6.11 1.15 9.77 3.29 9.46 5.4 0.465 15.6-1.09 1.24-2.39 2.2z" fill="#c25c5e"/><path d="m93.8 58.4q-3.78 2.85-4.53 7.32-0.713 4.43 2.05 7.84 2.82 3.35 7.47 3.78 4.68 0.372 8.5-2.51 3.81-2.82 4.56-7.32 0.713-4.46-2.11-7.84-2.76-3.41-7.44-3.78-4.65-0.372-8.5 2.51zm23.4 28.7q-9.61 7.22-21.3 6.29-5.74-0.465-10.7-3.04-4.81-2.51-8.03-6.48-3.32-4.06-4.71-9.08-1.43-5.15-0.527-10.7 0.868-5.49 3.97-10.3 2.88-4.62 7.47-8.12 9.61-7.22 21.3-6.29 5.74 0.465 10.7 3.04 4.77 2.45 8.06 6.48 3.35 4.09 4.68 9.08 1.43 5.08 0.527 10.7-0.868 5.46-3.94 10.3-2.95 4.65-7.5 8.12z" fill="#c25c5e"/><path d="m152 58.4q-3.78 2.85-4.53 7.32-0.713 4.43 2.05 7.84 2.82 3.35 7.47 3.78 4.68 0.372 8.5-2.51 3.81-2.82 4.56-7.32 0.713-4.46-2.11-7.84-2.76-3.41-7.44-3.78-4.65-0.372-8.5 2.51zm23.4 28.7q-9.61 7.22-21.3 6.29-5.74-0.465-10.7-3.04-4.81-2.51-8.03-6.48-3.32-4.06-4.71-9.08-1.43-5.15-0.527-10.7 0.868-5.49 3.97-10.3 2.88-4.62 7.47-8.12 9.61-7.22 21.3-6.29 5.74 0.465 10.7 3.04 4.77 2.45 8.06 6.48 3.35 4.09 4.68 9.08 1.43 5.08 0.527 10.7-0.868 5.46-3.94 10.3-2.95 4.65-7.5 8.12z" fill="#3c7ce2"/><path d="m202 92.7-18.1-7.53 17.9-47.1 17.8 21.3 18.5-21.6 14.9 48.3-18.8 6.36-4.77-18.7-10.4 13.5-10.4-11.7z" fill="#3c7ce2"/><g><path d="m283 74.3 7.22 0.31-4.31-8.22zm-4.37 11.7-3.13 8.4-18.3-6.08 26.9-52.8 30.6 50.4-13.8 8.93-4.4-8.43z"/><path d="m339 65.9q4.06-1.3 4.37-6.05 0.124-2.67-1.02-4.56-0.961-1.52-2.76-2.48-2.08-1.15-4.09-1.27l-0.465 14.7q1.89 0.31 3.97-0.31zm-22.7 26.9 1.98-52.6q10.6-1.27 21 0.341 9.15 1.33 14.4 5.02 6.48 4.56 6.39 12.4-0.217 14.3-11.2 19.5-3.97 1.92-8.5 2.23-3.75 0.279-5.89-0.527l-0.341 13.3z"/><path d="m379 91.7-17.1-0.062-0.558-51.9 18.9 0.372z"/></g></g><g transform="translate(0 -3.82)" stroke-width=".353"><path d="m82.7 67.5c-7.45-2.75-9.36-5.39-9.32-12.9 0.0774-13.3 5.83-25.6 6.86-14.7 0.375 3.97 1.2 6.14 2.73 7.24 1.58 1.12 4.71 2.52 5.68 2.52 0.789 0.0032 0.825 0.0922 0.598 1.5-0.35 2.18-0.785 6.12-1.28 11.6-0.398 4.42-0.497 4.84-1.18 5.02-1.17 0.314-2.75 0.199-4.1-0.297z" fill="#c25c5e"/><path d="m178 66.4c7.45-2.75 9.36-5.39 9.32-12.9-0.0774-13.3-5.83-25.6-6.86-14.7-0.375 3.97-1.2 6.14-2.73 7.24-1.58 1.12-4.71 2.52-5.68 2.52-0.789 0.0032-0.825 0.0922-0.598 1.5 0.35 2.18 0.785 6.12 1.28 11.6 0.398 4.42 0.497 4.84 1.18 5.02 1.17 0.314 2.75 0.199 4.1-0.297z" fill="#3c7ce2"/></g></g></svg>
